<svg width="404" height="122" viewBox="0 0 404 122" fill="none" xmlns="http://www.w3.org/2000/svg">
<path d="M112.5 26.4C112.5 16.1 104.1 7.79999 93.9 7.79999C83.6 7.79999 75.3 16.2 75.3 26.4V39.1C75.3 39.9 75.4 40.7 75.4 41.5H75.3V46.6C75.3 53 70.1 58.1 63.8 58.1C60 58.1 56.4 56.2 54.2 53L51.7 49.2C51 48.2 49.9 47.7 48.8 47.7C46.8 47.7 45.2 49.3 45.2 51.3V58.6C46.3 76.3 61.1 90.2 78.8 90.2C97.4 90.2 112.5 75.1 112.5 56.5V26.4Z" fill="white"/>
<path d="M37.2 51.3C37.2 44.9 42.4 39.8 48.7 39.8C52.5 39.8 56.1 41.7 58.3 44.9L60.8 48.7C61.3 49.4 62 49.9 62.9 50.1C63.2 50.2 63.5 50.2 63.8 50.2C65.8 50.2 67.3 48.6 67.3 46.6V39.2C66.2 21.6 51.4 7.79999 33.7 7.79999C15.1 7.79999 0 22.9 0 41.5V71.6C0 81.9 8.4 90.2 18.6 90.2C28.9 90.2 37.2 81.8 37.2 71.6V58.8C37.2 58 37.1 57.3 37.1 56.5H37.2V51.3Z" fill="white"/>
<path d="M241.405 17.6C237.005 17.6 233.405 18.3 230.505 19.7V5.30002C230.505 2.80002 228.505 0.900024 226.105 0.900024C223.605 0.900024 221.705 2.90002 221.705 5.30002V36.2V39.4V43.6C221.705 56.1 227.805 62.2 241.505 62.2C254.605 62.2 261.205 55.6 261.205 43.6V36.2C261.005 23.7 254.905 17.6 241.405 17.6ZM252.105 43.7C252.105 51.2 249.505 54 241.305 54C233.005 54 230.405 51.1 230.405 43.7V39.5V36.3C230.405 28.8 233.205 26 241.305 26C249.505 26 252.105 28.8 252.105 36.3V43.7Z" fill="white"/>
<path d="M146.8 17.6C133.6 17.6 127 23.8 127 36.2V39.4V57.8C127 60.3 129 62.2 131.4 62.2C133.9 62.2 135.8 60.2 135.8 57.8V39.5V36.3C135.8 28.8 138.6 26 146.7 26C154.9 26 157.5 28.8 157.5 36.3V39.5V57.9C157.5 60.4 159.5 62.3 161.9 62.3C164.4 62.3 166.3 60.3 166.3 57.9V39.5V36.3C166.5 23.7 160.4 17.6 146.8 17.6Z" fill="white"/>
<path d="M399.006 17.6C396.506 17.6 394.606 19.6 394.606 22V40.4V43.6C394.606 51.1 391.806 53.9 383.706 53.9C375.506 53.9 372.906 51.1 372.906 43.6V40.4V22.1C372.906 19.6 370.906 17.7 368.506 17.7C366.006 17.7 364.106 19.7 364.106 22.1V40.5V43.7C364.106 56.2 370.206 62.3 383.806 62.3C388.206 62.3 391.806 61.6 394.706 60.2V60.4C394.706 67.6 392.106 70.5 384.306 70.7C382.006 70.7 380.106 72.6 380.106 74.9C380.106 77.2 382.006 79.1 384.306 79.1C397.606 78.9 403.606 72.8 403.606 60.5V56.8V43.8V40.6V22.1C403.406 19.6 401.406 17.6 399.006 17.6Z" fill="white"/>
<path d="M351.606 0.900024C349.106 0.900024 347.206 2.90002 347.206 5.30002V19.6C344.306 18.2 340.606 17.5 336.306 17.5C322.806 17.5 316.606 23.6 316.606 36.1V43.5C316.606 55.6 323.206 62.1 336.306 62.1C350.006 62.1 356.106 56 356.106 43.5V39.3V36.1V5.30002C356.006 2.90002 354.006 0.900024 351.606 0.900024ZM347.206 39.5V43.7C347.206 51 344.506 54 336.306 54C328.106 54 325.506 51.2 325.506 43.7V36.3C325.506 28.8 328.106 26 336.306 26C344.506 26 347.206 28.8 347.206 36.3V39.5Z" fill="white"/>
<path d="M194.105 17.6C180.905 17.6 174.305 23.8 174.305 36.2V43.6C174.305 56.1 180.405 62.2 194.105 62.2C198.705 62.2 202.405 61.4 205.405 59.9C206.105 61.3 207.605 62.2 209.305 62.2C211.805 62.2 213.705 60.2 213.705 57.8V43.7V39.5V36.3C213.705 23.7 207.605 17.6 194.105 17.6ZM204.905 39.5V43.7C204.905 51.2 202.305 53.9 194.105 53.9C185.805 53.9 183.205 51 183.205 43.6V36.2C183.205 28.7 186.005 25.9 194.105 25.9C202.305 25.9 204.905 28.7 204.905 36.2V39.5Z" fill="white"/>
<path d="M289.005 17.6C275.805 17.6 269.205 23.8 269.205 36.2V43.6C269.205 56.1 275.305 62.2 289.005 62.2C293.605 62.2 297.305 61.4 300.305 59.9C301.005 61.3 302.505 62.2 304.205 62.2C306.705 62.2 308.605 60.2 308.605 57.8V43.7V39.5V36.3C308.705 23.7 302.605 17.6 289.005 17.6ZM299.805 39.5V43.7C299.805 51.2 297.205 53.9 289.005 53.9C280.705 53.9 278.105 51 278.105 43.6V36.2C278.105 28.7 280.905 25.9 289.005 25.9C297.105 25.9 299.805 28.7 299.805 36.2V39.5Z" fill="white"/>
<rect x="127" y="72" width="85" height="50" rx="5" fill="white"/>
<path d="M143.12 108C142.49 108 141.95 107.46 141.95 106.83V88.17C141.95 87.51 142.49 87 143.12 87H150.08C153.68 87 156.47 89.1 156.47 92.46C156.47 94.14 155.72 95.67 154.52 96.75C156.5 97.83 157.82 99.81 157.61 102.33C157.34 105.57 154.52 108 151.28 108H143.12ZM150.77 104.25C152.33 104.25 153.65 103.11 153.65 101.49C153.65 99.87 152.33 98.88 150.77 98.88H145.94V104.25H150.77ZM150.08 95.61C151.61 95.61 152.72 94.53 152.72 93.15C152.72 91.77 151.61 90.75 150.08 90.75H145.94V95.61H150.08ZM170.988 108.45C164.958 108.45 160.038 103.53 160.038 97.5C160.038 91.44 164.958 86.52 170.988 86.52C177.048 86.52 181.938 91.44 181.938 97.5C181.938 103.53 177.048 108.45 170.988 108.45ZM170.988 104.46C174.828 104.46 177.978 101.34 177.978 97.5C177.978 93.66 174.828 90.51 170.988 90.51C167.148 90.51 164.028 93.66 164.028 97.5C164.028 101.34 167.148 104.46 170.988 104.46ZM189.326 108C188.696 108 188.156 107.46 188.156 106.83V90.75H184.316C183.656 90.75 183.146 90.21 183.146 89.58V88.17C183.146 87.51 183.656 87 184.316 87H196.016C196.646 87 197.186 87.51 197.186 88.17V89.58C197.186 90.21 196.646 90.75 196.016 90.75H192.146V106.83C192.146 107.46 191.636 108 190.976 108H189.326Z" fill="black"/>
</svg>
